<?xml version="1.0" encoding="UTF-8" standalone="no"?>
<!DOCTYPE svg PUBLIC "-//W3C//DTD SVG 1.1//EN" "http://www.w3.org/Graphics/SVG/1.1/DTD/svg11.dtd">
<svg width="100%" height="100%" viewBox="0 0 872 278" version="1.1" xmlns="http://www.w3.org/2000/svg" xmlns:xlink="http://www.w3.org/1999/xlink" xml:space="preserve" xmlns:serif="http://www.serif.com/" style="fill-rule:evenodd;clip-rule:evenodd;stroke-linejoin:round;stroke-miterlimit:2;">
    <g transform="matrix(1,0,0,1,-1048.45,-802.126)">
        <g transform="matrix(1,0,0,1.00116,0,7.98652e-16)">
            <g id="carpet">
                <g id="carpet1" serif:id="carpet" transform="matrix(1.99735,0,0,1.77613,-237.14,-13.0124)">
                    <path d="M658.732,490.748L1080,489L1080,614.686L643.646,614.686" style="fill:rgb(148,31,41);"/>
                </g>
                <g id="effect" transform="matrix(1,0,0,0.998844,-20,-25.8441)">
                    <g transform="matrix(1,0,0,1,-199.912,67.0597)">
                        <rect x="1446.88" y="803" width="400.123" height="89" style="fill:rgb(153,36,43);fill-opacity:0.44;"/>
                    </g>
                    <g transform="matrix(0.795788,0,0,1,470.179,25)">
                        <rect x="1446.88" y="803" width="400.123" height="89" style="fill:rgb(229,114,105);fill-opacity:0.44;"/>
                    </g>
                    <g transform="matrix(0.61012,0,0,1,480.818,47.5)">
                        <rect x="1446.88" y="803" width="400.123" height="89" style="fill:rgb(153,36,43);fill-opacity:0.44;"/>
                    </g>
                    <g transform="matrix(1.03961,0,0,1.21977,-0.164597,-128.977)">
                        <rect x="1446.88" y="803" width="400.123" height="89" style="fill:rgb(229,114,105);fill-opacity:0.44;"/>
                    </g>
                    <g transform="matrix(0.739705,0,0,1.21977,509.765,-64.9169)">
                        <rect x="1446.88" y="803" width="400.123" height="89" style="fill:rgb(229,114,105);fill-opacity:0.44;"/>
                    </g>
                </g>
            </g>
        </g>
    </g>
</svg>
