<?xml version="1.0" encoding="UTF-8" standalone="no"?>
<svg
   width="246.1937"
   height="318.19406"
   viewBox="0 0 246.1937 318.19407"
   version="1.1"
   xml:space="preserve"
   style="clip-rule:evenodd;fill-rule:evenodd;stroke-linecap:round;stroke-linejoin:round;stroke-miterlimit:1.5"
   id="svg42"
   sodipodi:docname="coffee.svg"
   inkscape:version="1.2 (dc2aedaf03, 2022-05-15)"
   xmlns:inkscape="http://www.inkscape.org/namespaces/inkscape"
   xmlns:sodipodi="http://sodipodi.sourceforge.net/DTD/sodipodi-0.dtd"
   xmlns="http://www.w3.org/2000/svg"
   xmlns:svg="http://www.w3.org/2000/svg"><defs
   id="defs46" /><sodipodi:namedview
   id="namedview44"
   pagecolor="#505050"
   bordercolor="#eeeeee"
   borderopacity="1"
   inkscape:showpageshadow="0"
   inkscape:pageopacity="0"
   inkscape:pagecheckerboard="0"
   inkscape:deskcolor="#505050"
   showgrid="false"
   inkscape:zoom="2.5085631"
   inkscape:cx="119.98901"
   inkscape:cy="129.95487"
   inkscape:window-width="1920"
   inkscape:window-height="1027"
   inkscape:window-x="1912"
   inkscape:window-y="-8"
   inkscape:window-maximized="1"
   inkscape:current-layer="svg42" />
    <g
   transform="translate(-692.71289,-3614.4944)"
   id="g40">
        <g
   id="coffee"
   transform="matrix(0.967538,0,0,0.967538,449.23,1062.72)">
            
            
            
            
            
            
            
            
            
        <path
   d="m 263.65202,2686.478 48,258 c 0,0 -1.336,15.5 67.227,18 68.562,2.5 83.773,-24 83.773,-24 l 29,-255 c 0,0 -32.88,14.27 -112.773,11 -79.894,-3.27 -115.227,-8 -115.227,-8 z"
   style="clip-rule:evenodd;fill:#429dd5;fill-rule:evenodd;stroke:#ffffff;stroke-width:7.23px;stroke-linecap:round;stroke-linejoin:round;stroke-miterlimit:1.5"
   id="path2" /><path
   d="m 294.65202,2787.478 c 0,0 14.225,-3.34 32,-16 0,0 12.076,7.55 58,9 45.924,1.45 58,-14 58,-14 0,0 5.848,11.82 26,17 0,0 13.76,108.52 -38,121 0,0 -40.898,1.19 -53,21 0,0 -5.788,-12.04 -34,-20 0,0 -34.289,-1.36 -41,-45 -6.711,-43.64 -8,-73 -8,-73 z"
   style="clip-rule:evenodd;fill:#ffffff;fill-rule:evenodd;stroke:#ffffff;stroke-width:4.65px;stroke-linecap:round;stroke-linejoin:round;stroke-miterlimit:1.5"
   id="path4" /><g
   id="logo"
   style="clip-rule:evenodd;fill-rule:evenodd;stroke-linecap:round;stroke-linejoin:round;stroke-miterlimit:1.5"
   transform="translate(-528.34798,595.47804)">
                <path
   d="m 947,2251.82 4,38.18 -1.961,-18.72 25.961,-19.46 -14.481,10.85 15.481,18.87"
   style="fill:none;stroke:#ffd200;stroke-width:10.34px"
   id="path6" />
                <g
   id="g12">
                    <path
   d="m 918,2253.95 v 36.05 -17.65 h 9.648 c 0,0 10.01,-3.76 10.352,-11.35 0.68,-15.08 -20,-7.05 -20,-7.05 z"
   style="fill:none;stroke:#ffd200;stroke-width:10.34px"
   id="path8" />
                    <path
   d="m 938.016,2290.74 -10.368,-18.39"
   style="fill:none;stroke:#ffd200;stroke-width:10.34px"
   id="path10" />
                </g>
                <path
   d="m 893,2254 c 0,0 -15.187,-1.97 -15,20 0.187,21.97 15,16 15,16 0,0 11.607,0.49 12.5,-16 0.893,-16.49 -12.5,-20 -12.5,-20 z"
   style="fill:none;stroke:#ffd200;stroke-width:10.34px"
   id="path14" />
                <path
   d="m 872,2251 -15,19 -17,-20 17,20 v 20"
   style="fill:none;stroke:#ffd200;stroke-width:10.34px"
   id="path16" />
                <path
   d="m 925.634,2201 13.366,36 14,-36 17,36 7,-41"
   style="fill:none;stroke:#ffd200;stroke-width:10.34px"
   id="path18" />
                <path
   d="m 914,2202 -21,-1 v 18 l 21,-1 -21,1 2,18 23,-1"
   style="fill:none;stroke:#ffd200;stroke-width:10.34px"
   id="path20" />
                <path
   d="m 845,2232 1,-36 31,36 -2,-33"
   style="fill:none;stroke:#ffd200;stroke-width:10.34px"
   id="path22" />
            </g><path
   d="m 306.65202,2925.478 c 0,0 32.14,24.32 79,22 46.86,-2.32 79,-29 79,-29"
   style="clip-rule:evenodd;fill:none;fill-rule:evenodd;stroke:#ffffff;stroke-width:7.23px;stroke-linecap:round;stroke-linejoin:round;stroke-miterlimit:1.5"
   id="path25" /><path
   d="m 270.65202,2709.478 c 0,0 31.533,11.57 108.5,12.25 76.967,0.68 108.5,-16.68 108.5,-16.68"
   style="clip-rule:evenodd;fill:none;fill-rule:evenodd;stroke:#ffffff;stroke-width:7.23px;stroke-linecap:round;stroke-linejoin:round;stroke-miterlimit:1.5"
   id="path27" /><path
   d="m 270.65202,2724.478 24,7 -1,14 -7,-2 -1,-9 -9,-1 2,15 22,6 3,-20 27,2 v 13 h -11 v -6 l -11,-1 2,12 28,3 1,-18.5 h 31 v 10.5 l -11,2 -1,-7 -11,2 1,12 32,1 -1.773,-20.5 h 26.773 l 1,11.5 -9.366,2 -1.634,-6 h -9 l 2,12 28,-1 -1,-18.5 24,-2.5 2,9 -10,2 -1,-5 -8,2 3,13 25,-4 -2,-19 23,-7 3,11.5 -8,3.5 -2,-5 -7,3 2,12 23,-7 -3,-20 8,-3.75"
   style="clip-rule:evenodd;fill:none;fill-rule:evenodd;stroke:#ffffff;stroke-width:7.23px;stroke-linecap:round;stroke-linejoin:round;stroke-miterlimit:1.5"
   id="path29" /><path
   d="m 378.65202,2704.478 c 0,0 108.68,1.72 126,-33.52 17.33,-35.24 -126,-33.48 -126,-33.48 0,0 -113.251,-3.5 -127,33.48 9.346,31.3 62.247,36.02 127,33.52 z"
   style="clip-rule:evenodd;fill:#ffffff;fill-rule:evenodd;stroke-linecap:round;stroke-linejoin:round;stroke-miterlimit:1.5"
   id="path31" /><path
   d="m 290.65202,2674.478 c 0,0 40.836,-15.12 82,-14 41.164,1.12 94,13 94,13 0,0 -34.048,8.49 -88,8 -53.952,-0.49 -88,-7 -88,-7 z"
   style="clip-rule:evenodd;fill:#7a6352;fill-rule:evenodd;stroke-linecap:round;stroke-linejoin:round;stroke-miterlimit:1.5"
   id="path33" /></g>
    </g>
</svg>
