<?xml version="1.0" encoding="UTF-8" standalone="no"?>
<!DOCTYPE svg PUBLIC "-//W3C//DTD SVG 1.1//EN" "http://www.w3.org/Graphics/SVG/1.1/DTD/svg11.dtd">
<svg width="100%" height="100%" viewBox="0 0 1551 1910" version="1.1" xmlns="http://www.w3.org/2000/svg" xmlns:xlink="http://www.w3.org/1999/xlink" xml:space="preserve" xmlns:serif="http://www.serif.com/" style="fill-rule:evenodd;clip-rule:evenodd;stroke-linecap:round;stroke-linejoin:round;stroke-miterlimit:1.5;">
    <g transform="matrix(1,0,0,1,-340.001,-2950.51)">
        <g id="coffee" transform="matrix(0.967538,0,0,0.967538,449.23,1062.72)">
            <path d="M792,2091L840,2349C840,2349 838.664,2364.5 907.227,2367C975.789,2369.5 991,2343 991,2343L1020,2088C1020,2088 987.12,2102.27 907.227,2099C827.333,2095.73 792,2091 792,2091Z" style="fill:rgb(66,157,213);stroke:white;stroke-width:7.23px;"/>
            <path d="M823,2192C823,2192 837.225,2188.66 855,2176C855,2176 867.076,2183.55 913,2185C958.924,2186.45 971,2171 971,2171C971,2171 976.848,2182.82 997,2188C997,2188 1010.76,2296.52 959,2309C959,2309 918.102,2310.19 906,2330C906,2330 900.212,2317.96 872,2310C872,2310 837.711,2308.64 831,2265C824.289,2221.36 823,2192 823,2192Z" style="fill:white;stroke:white;stroke-width:4.65px;"/>
            <g id="logo">
                <path d="M947,2251.82L951,2290L949.039,2271.28L975,2251.82L960.519,2262.67L976,2281.54" style="fill:none;stroke:rgb(255,210,0);stroke-width:10.34px;"/>
                <g>
                    <path d="M918,2253.95L918,2290L918,2272.35L927.648,2272.35C927.648,2272.35 937.658,2268.59 938,2261C938.68,2245.92 918,2253.95 918,2253.95Z" style="fill:none;stroke:rgb(255,210,0);stroke-width:10.34px;"/>
                    <path d="M938.016,2290.74L927.648,2272.35" style="fill:none;stroke:rgb(255,210,0);stroke-width:10.34px;"/>
                </g>
                <path d="M893,2254C893,2254 877.813,2252.03 878,2274C878.187,2295.97 893,2290 893,2290C893,2290 904.607,2290.49 905.5,2274C906.393,2257.51 893,2254 893,2254Z" style="fill:none;stroke:rgb(255,210,0);stroke-width:10.34px;"/>
                <path d="M872,2251L857,2270L840,2250L857,2270L857,2290" style="fill:none;stroke:rgb(255,210,0);stroke-width:10.34px;"/>
                <path d="M925.634,2201L939,2237L953,2201L970,2237L977,2196" style="fill:none;stroke:rgb(255,210,0);stroke-width:10.34px;"/>
                <path d="M914,2202L893,2201L893,2219L914,2218L893,2219L895,2237L918,2236" style="fill:none;stroke:rgb(255,210,0);stroke-width:10.34px;"/>
                <path d="M845,2232L846,2196L877,2232L875,2199" style="fill:none;stroke:rgb(255,210,0);stroke-width:10.34px;"/>
            </g>
            <path d="M835,2330C835,2330 867.14,2354.32 914,2352C960.86,2349.68 993,2323 993,2323" style="fill:none;stroke:white;stroke-width:7.23px;"/>
            <path d="M799,2114C799,2114 830.533,2125.57 907.5,2126.25C984.467,2126.93 1016,2109.57 1016,2109.57" style="fill:none;stroke:white;stroke-width:7.23px;"/>
            <path d="M799,2129L823,2136L822,2150L815,2148L814,2139L805,2138L807,2153L829,2159L832,2139L859,2141L859,2154L848,2154L848,2148L837,2147L839,2159L867,2162L868,2143.5L899,2143.5L899,2154L888,2156L887,2149L876,2151L877,2163L909,2164L907.227,2143.5L934,2143.5L935,2155L925.634,2157L924,2151L915,2151L917,2163L945,2162L944,2143.5L968,2141L970,2150L960,2152L959,2147L951,2149L954,2162L979,2158L977,2139L1000,2132L1003,2143.5L995,2147L993,2142L986,2145L988,2157L1011,2150L1008,2130L1016,2126.25" style="fill:none;stroke:white;stroke-width:7.23px;"/>
            <path d="M907,2109C907,2109 1015.68,2110.72 1033,2075.48C1050.33,2040.24 907,2042 907,2042C907,2042 793.749,2038.5 780,2075.48C789.346,2106.78 842.247,2111.5 907,2109Z" style="fill:white;"/>
            <path d="M819,2079C819,2079 859.836,2063.88 901,2065C942.164,2066.12 995,2078 995,2078C995,2078 960.952,2086.49 907,2086C853.048,2085.51 819,2079 819,2079Z" style="fill:rgb(122,99,82);"/>
            <g transform="matrix(1.03355,0,0,1.03355,-464.303,-1098.38)">
                <path d="M1322,3070.83C1322,3070.83 1334.65,3019.7 1278,3013C1221.35,3006.3 1249.11,2967.1 1327.79,2962C1406.46,2956.9 1695.03,2927.14 1814,2990C1986.3,3081.04 1821.74,3437.66 1765,3486C1543.42,3674.79 881.582,3485.37 1116.78,3961C1351.97,4436.64 1740.15,4499.54 1776,4667C1811.85,4834.46 1522.2,4859.01 1411.93,4860.5C1301.66,4861.99 1414.42,4685.89 1411.93,4567C1409.44,4448.11 732.092,3993.95 454,3917C175.908,3840.05 473.564,3650.49 638,3634C802.436,3617.51 1561.37,3556.85 1719,3357.07C1808.17,3244.06 1784.79,3194.14 1776.38,3130.7C1769.45,3078.5 1696.98,3040.14 1610.51,3012.44C1482.81,2971.51 1361.84,2965.58 1352.03,3038.35" style="fill:white;fill-opacity:0.26;"/>
            </g>
        </g>
    </g>
</svg>
