<?xml version="1.0" encoding="UTF-8" standalone="no"?><!DOCTYPE svg PUBLIC "-//W3C//DTD SVG 1.1//EN" "http://www.w3.org/Graphics/SVG/1.1/DTD/svg11.dtd"><svg width="100%" height="100%" viewBox="0 0 768 1272" version="1.1" xmlns="http://www.w3.org/2000/svg" xmlns:xlink="http://www.w3.org/1999/xlink" xml:space="preserve" xmlns:serif="http://www.serif.com/" style="fill-rule:evenodd;clip-rule:evenodd;stroke-linejoin:round;stroke-miterlimit:2;"><g id="education"><path d="M32.437,895.236l97.273,15.464l1.276,358.351l-93.275,2.084l-5.274,-375.899Z" style="fill:#646565;"/><path d="M687.392,1010.08l2.551,261.057l77.146,-0l-0.697,-303.197" style="fill:#646565;"/><path d="M0,97.934l684.288,-97.934l5.655,1010.27l-658.839,-115.116" style="fill:#10092b;"/><path d="M44.345,167.519l2.861,68.726l606.527,-53.263l-2.861,-85.907" style="fill:#37356a;"/><path d="M765.476,34.363l-80.613,-34.363l3.225,1010.27l79.001,-42.954" style="fill:#37356a;"/><g transform="matrix(0.99513,-0.0985719,0.0985719,0.99513,108.686,-216.79)"><g transform="matrix(71.362,0,0,71.362,454.04,435.958)"></g><text x="-57.654px" y="435.958px" style="font-family:'ArialMT', 'Arial', sans-serif;font-size:71.362px;fill:#fff;">Education <tspan x="278.284px 319.226px 342.99px " y="435.958px 435.958px 435.958px ">Tra</tspan>ck</text></g><g transform="matrix(1.60705,-0.0241363,0.025588,1.70372,-1908.39,-1281.34)"><text x="1221.87px" y="965px" style="font-family:'ArialMT', 'Arial', sans-serif;font-size:26.899px;fill:#fff;">Revolutionize the way we</text><text x="1221.87px" y="992.779px" style="font-family:'ArialMT', 'Arial', sans-serif;font-size:26.899px;fill:#fff;">teach and learn by using</text><text x="1221.87px" y="1020.56px" style="font-family:'ArialMT', 'Arial', sans-serif;font-size:26.899px;fill:#fff;">technology to enhance</text><text x="1221.87px" y="1048.34px" style="font-family:'ArialMT', 'Arial', sans-serif;font-size:26.899px;fill:#fff;">educational experiences,</text><text x="1221.87px" y="1076.12px" style="font-family:'ArialMT', 'Arial', sans-serif;font-size:26.899px;fill:#fff;">build interactive learning</text><text x="1221.87px" y="1103.89px" style="font-family:'ArialMT', 'Arial', sans-serif;font-size:26.899px;fill:#fff;">platforms, improve access</text><text x="1221.87px" y="1131.67px" style="font-family:'ArialMT', 'Arial', sans-serif;font-size:26.899px;fill:#fff;">to educational resources,</text><text x="1221.87px" y="1159.45px" style="font-family:'ArialMT', 'Arial', sans-serif;font-size:26.899px;fill:#fff;">or address equity in</text><text x="1221.87px" y="1187.23px" style="font-family:'ArialMT', 'Arial', sans-serif;font-size:26.899px;fill:#fff;">education.</text></g></g></svg>