<?xml version="1.0" encoding="UTF-8" standalone="no"?>
<svg
   width="100%"
   height="100%"
   viewBox="0 0 1551 1910"
   version="1.1"
   xml:space="preserve"
   style="fill-rule:evenodd;clip-rule:evenodd;stroke-linecap:round;stroke-linejoin:round;stroke-miterlimit:1.5;"
   id="svg42"
   sodipodi:docname="steam.svg"
   inkscape:version="1.2 (dc2aedaf03, 2022-05-15)"
   xmlns:inkscape="http://www.inkscape.org/namespaces/inkscape"
   xmlns:sodipodi="http://sodipodi.sourceforge.net/DTD/sodipodi-0.dtd"
   xmlns="http://www.w3.org/2000/svg"
   xmlns:svg="http://www.w3.org/2000/svg"><defs
   id="defs46" /><sodipodi:namedview
   id="namedview44"
   pagecolor="#505050"
   bordercolor="#eeeeee"
   borderopacity="1"
   inkscape:showpageshadow="0"
   inkscape:pageopacity="0"
   inkscape:pagecheckerboard="0"
   inkscape:deskcolor="#505050"
   showgrid="false"
   inkscape:zoom="0.4434555"
   inkscape:cx="775.72609"
   inkscape:cy="775.72609"
   inkscape:window-width="1920"
   inkscape:window-height="1027"
   inkscape:window-x="1912"
   inkscape:window-y="-8"
   inkscape:window-maximized="1"
   inkscape:current-layer="coffee" />
    <g
   transform="matrix(1,0,0,1,-340.001,-2950.51)"
   id="g40">
        <g
   id="coffee"
   transform="matrix(0.967538,0,0,0.967538,449.23,1062.72)">
            
            
            
            
            
            
            
            
            <g
   transform="matrix(1.03355,0,0,1.03355,-464.303,-1098.38)"
   id="g37">
                <path
   d="M1322,3070.83C1322,3070.83 1334.65,3019.7 1278,3013C1221.35,3006.3 1249.11,2967.1 1327.79,2962C1406.46,2956.9 1695.03,2927.14 1814,2990C1986.3,3081.04 1821.74,3437.66 1765,3486C1543.42,3674.79 881.582,3485.37 1116.78,3961C1351.97,4436.64 1740.15,4499.54 1776,4667C1811.85,4834.46 1522.2,4859.01 1411.93,4860.5C1301.66,4861.99 1414.42,4685.89 1411.93,4567C1409.44,4448.11 732.092,3993.95 454,3917C175.908,3840.05 473.564,3650.49 638,3634C802.436,3617.51 1561.37,3556.85 1719,3357.07C1808.17,3244.06 1784.79,3194.14 1776.38,3130.7C1769.45,3078.5 1696.98,3040.14 1610.51,3012.44C1482.81,2971.51 1361.84,2965.58 1352.03,3038.35"
   style="fill:white;fill-opacity:0.26;"
   id="path35" />
            </g>
        </g>
    </g>
</svg>
