<?xml version="1.0" encoding="UTF-8" standalone="no"?>
<!DOCTYPE svg PUBLIC "-//W3C//DTD SVG 1.1//EN" "http://www.w3.org/Graphics/SVG/1.1/DTD/svg11.dtd">
<svg width="100%" height="100%" viewBox="0 0 97 131" version="1.1" xmlns="http://www.w3.org/2000/svg" xmlns:xlink="http://www.w3.org/1999/xlink" xml:space="preserve" xmlns:serif="http://www.serif.com/" style="fill-rule:evenodd;clip-rule:evenodd;stroke-linejoin:round;stroke-miterlimit:2;">
    <g transform="matrix(1,0,0,1,-1519.98,-663.264)">
        <g id="cat" transform="matrix(1.77613,0,0,1.77819,1.77613,-6.90035e-13)">
            <path d="M881,375L887,378L888,377L889,373L894,376L902,387L904,397L904,416C904,416 913.261,430.23 907,435C900.739,439.77 893,439 893,439C893,439 873.303,451.497 859,444C844.697,436.503 871.218,440.43 873,440C874.782,439.57 883,438 883,438L881,437C879.355,436.075 877.697,434.479 876,431C874.076,424.025 875.228,418.17 881,414L882,407L885,396L884,392C884,392 881.759,392.9 881,390C880.241,387.1 882,383 882,383"/>
        </g>
    </g>
</svg>
