<?xml version="1.0" encoding="UTF-8" standalone="no"?>
<!DOCTYPE svg PUBLIC "-//W3C//DTD SVG 1.1//EN" "http://www.w3.org/Graphics/SVG/1.1/DTD/svg11.dtd">
<svg width="100%" height="100%" viewBox="0 0 557 256" version="1.1" xmlns="http://www.w3.org/2000/svg" xmlns:xlink="http://www.w3.org/1999/xlink" xml:space="preserve" xmlns:serif="http://www.serif.com/" style="fill-rule:evenodd;clip-rule:evenodd;stroke-linejoin:round;stroke-miterlimit:2;">
    <g transform="matrix(1,0,0,1,-616.106,-3160.95)">
        <g id="can-of-pringles" serif:id="can of pringles" transform="matrix(0.702957,0,0,0.702957,222.375,1007.79)">
            <path d="M872.455,3063L617,3118C617,3118 507.776,3172.53 592,3266.11L872.455,3342L872.455,3063Z" style="fill:rgb(88,167,71);"/>
            <g transform="matrix(0.942568,0,0,0.942568,-85.1936,174.973)">
                <circle cx="1016" cy="3212" r="148" style="fill:rgb(55,35,19);"/>
                <path d="M1016,3064C1097.68,3064 1164,3130.32 1164,3212C1164,3293.68 1097.68,3360 1016,3360C934.317,3360 868,3293.68 868,3212C868,3130.32 934.317,3064 1016,3064ZM1016,3076.07C940.98,3076.07 880.074,3136.98 880.074,3212C880.074,3287.02 940.98,3347.93 1016,3347.93C1091.02,3347.93 1151.93,3287.02 1151.93,3212C1151.93,3136.98 1091.02,3076.07 1016,3076.07Z" style="fill:rgb(201,201,201);"/>
            </g>
            <g id="pringles">
                <g transform="matrix(1,0,0,1,-1,1)">
                    <path d="M1110,3250.57C1110,3250.57 1167.26,3291.6 1099,3349C1099,3349 1038.31,3382.91 1000,3381.51L1110,3250.57Z" style="fill:rgb(203,189,128);"/>
                </g>
                <path d="M1073,3336C1073,3336 1146.56,3318.45 1154,3241C1154,3241 1234.12,3245.29 1166,3381C1166,3381 1121.53,3420.92 1038,3368L1055,3335L1073,3336Z" style="fill:rgb(238,228,186);"/>
                <path d="M659,3309C659,3309 796.702,3335.66 834,3231.56C834,3231.56 855.46,3190.77 875,3264C875,3264 907.709,3412 785,3424C785,3424 727.649,3449.27 650,3336C640.221,3314.21 646.316,3308.31 659,3309Z" style="fill:rgb(238,228,186);"/>
                <g transform="matrix(0.674922,0,0,0.564768,758.011,1447.42)">
                    <path d="M659,3309C659,3309 796.702,3335.66 834,3231.56C834,3231.56 855.46,3190.77 875,3264C875,3264 907.709,3412 785,3424C785,3424 727.649,3449.27 650,3336C640.221,3314.21 646.316,3308.31 659,3309Z" style="fill:rgb(238,228,186);"/>
                </g>
                <path d="M1012,3314C1012,3314 981.794,3310.24 959.112,3296C959.112,3296 919.562,3284.1 927,3317C927,3317 928.931,3370.27 999,3381C999,3381 1050.85,3396.73 1110,3253C1100.95,3243.29 1087.02,3264.35 1073,3286C1057.11,3307.64 1029.13,3310.99 1012,3314Z" style="fill:rgb(238,228,186);"/>
                <path d="M868,3237C868,3237 880.405,3202.46 909,3207C909,3207 932.481,3199.64 959.112,3252C959.112,3252 980.495,3326.41 904,3342L875,3347L868,3237Z" style="fill:rgb(238,228,186);"/>
            </g>
        </g>
    </g>
</svg>
