<?xml version="1.0" encoding="UTF-8" standalone="no"?>
<!DOCTYPE svg PUBLIC "-//W3C//DTD SVG 1.1//EN" "http://www.w3.org/Graphics/SVG/1.1/DTD/svg11.dtd">
<svg width="100%" height="100%" viewBox="0 0 4334 598" version="1.1" xmlns="http://www.w3.org/2000/svg" xmlns:xlink="http://www.w3.org/1999/xlink" xml:space="preserve" xmlns:serif="http://www.serif.com/" style="fill-rule:evenodd;clip-rule:evenodd;stroke-linecap:round;stroke-linejoin:round;stroke-miterlimit:1.5;">
    <g transform="matrix(1,0,0,1,-279.027,7.73)">
        <g id="hero">
            <g id="shelf">
                <path d="M4019.45,-0.004L4584.96,-7.73L4287.73,588.704L4019.45,588.704L4019.45,-0.004Z" style="fill:rgb(148,102,86);"/>
                <g id="boxes">
                    <g id="box">
                        <path d="M4442.73,-0.004L3989.74,-0L4003.83,248.619L4455.21,259.023" style="fill:rgb(152,35,45);"/>
                        <path d="M4442.73,0L4611.62,-0.004L4612.72,20.551L4454.91,266.427" style="fill:rgb(202,74,85);"/>
                    </g>
                    <g id="box1" serif:id="box">
                        <path d="M4213.7,-0.004L3757.12,-1.041L3789.53,570.898L4240.91,581.303" style="fill:rgb(152,35,45);"/>
                        <path d="M4213.7,-0.004L4380.03,0L4398.42,342.83L4240.61,588.706" style="fill:rgb(202,74,85);"/>
                    </g>
                </g>
            </g>
            <g transform="matrix(1,0,0,0.235926,0,449.811)">
                <g id="hero-info" serif:id="hero info">
                    <rect x="280.542" y="-1910.99" width="3738.9" height="2499.69" style="fill:rgb(100,72,64);stroke:rgb(100,72,64);stroke-width:4.17px;"/>
                </g>
            </g>
        </g>
    </g>
</svg>
