<?xml version="1.0" encoding="UTF-8" standalone="no"?>
<!DOCTYPE svg PUBLIC "-//W3C//DTD SVG 1.1//EN" "http://www.w3.org/Graphics/SVG/1.1/DTD/svg11.dtd">
<svg width="100%" height="100%" viewBox="0 0 1919 835" version="1.1" xmlns="http://www.w3.org/2000/svg" xmlns:xlink="http://www.w3.org/1999/xlink" xml:space="preserve" xmlns:serif="http://www.serif.com/" style="fill-rule:evenodd;clip-rule:evenodd;stroke-linejoin:round;stroke-miterlimit:2;">
    <g transform="matrix(1,0,0,1,-1.77613,-2097.5)">
        <g transform="matrix(1,0,0,1.08166,0,-239.424)">
            <rect x="1.776" y="2160.5" width="1918.22" height="771.5" style="fill:rgb(205,254,255);"/>
            <clipPath id="_clip1">
                <rect x="1.776" y="2160.5" width="1918.22" height="771.5"/>
            </clipPath>
            <g clip-path="url(#_clip1)">
                <g id="frame" transform="matrix(1,0,0,0.924506,0,221.349)">
                    <rect x="1.776" y="2096" width="1918.22" height="59.165" style="fill:rgb(148,102,86);"/>
                    <g transform="matrix(1,0,0,1,-0.888067,776.835)">
                        <rect x="1.776" y="2096" width="1918.22" height="59.165" style="fill:rgb(148,102,86);"/>
                    </g>
                    <g transform="matrix(0.030353,0,0,14.1046,1.72222,-27465.8)">
                        <rect x="1.776" y="2096" width="1918.22" height="59.165" style="fill:rgb(148,102,86);"/>
                    </g>
                    <g transform="matrix(0.030353,0,0,14.1046,959.946,-27465.8)">
                        <rect x="1.776" y="2096" width="1918.22" height="59.165" style="fill:rgb(148,102,86);"/>
                    </g>
                    <g transform="matrix(0.030353,0,0,14.1046,1861.72,-27465.8)">
                        <rect x="1.776" y="2096" width="1918.22" height="59.165" style="fill:rgb(148,102,86);"/>
                    </g>
                </g>
            </g>
        </g>
    </g>
</svg>
